<?xml version="1.0" encoding="utf-8"?>
<!-- Generator: Adobe Illustrator 25.2.3, SVG Export Plug-In . SVG Version: 6.00 Build 0)  -->
<svg version="1.1" xmlns="http://www.w3.org/2000/svg" xmlns:xlink="http://www.w3.org/1999/xlink" x="0px" y="0px"
	 viewBox="0 0 612 792" style="enable-background:new 0 0 612 792;" xml:space="preserve">
<style type="text/css">
	.st0{display:none;}
	.st1{display:inline;}
	.st2{fill:none;stroke:#B52B26;stroke-width:5;stroke-miterlimit:10;}
</style>
<g id="Layer_1">
</g>
<g id="branding" class="st0">
	<g class="st1">
		<path class="st2" d="M247.87,511.81h-31.98c-0.39,0-0.71-0.32-0.71-0.71V280.89c0-0.39,0.32-0.71,0.71-0.71h31.98
			c0.39,0,0.71,0.32,0.71,0.71v230.22C248.57,511.5,248.26,511.81,247.87,511.81z"/>
		<path class="st2" d="M327.25,426.26h-77.97c-0.39,0-0.71-0.32-0.71-0.71V299.67c0-0.39,0.32-0.71,0.71-0.71h77.97
			c0.39,0,0.71,0.32,0.71,0.71v125.88C327.95,425.94,327.64,426.26,327.25,426.26z"/>
		<path class="st2" d="M396.11,453.38h-67.45c-0.39,0-0.71-0.32-0.71-0.71V326.8c0-0.39,0.32-0.71,0.71-0.71h67.45
			c0.39,0,0.71,0.32,0.71,0.71v125.88C396.82,453.07,396.5,453.38,396.11,453.38z"/>
	</g>
</g>
<g id="strategy" class="st0">
	<g class="st1">
		<circle class="st2" cx="196.92" cy="426.56" r="44.06"/>
		<circle class="st2" cx="308.03" cy="315.45" r="44.06"/>
		<circle class="st2" cx="415.08" cy="470.61" r="44.06"/>
		<line class="st2" x1="196.92" y1="382.5" x2="196.92" y2="247.41"/>
		<line class="st2" x1="196.92" y1="470.61" x2="196.92" y2="544.59"/>
		<line class="st2" x1="308.03" y1="359.5" x2="308.03" y2="544.59"/>
		<line class="st2" x1="308.03" y1="271.39" x2="308.03" y2="247.41"/>
		<line class="st2" x1="415.08" y1="426.56" x2="415.08" y2="247.41"/>
		<line class="st2" x1="415.08" y1="514.67" x2="415.08" y2="544.59"/>
	</g>
</g>
<g id="viedo_x5F_product" class="st0">
	<g class="st1">
		<g>
			<path class="st2" d="M383.61,418.34v78.14c0,18.94-15.42,34.26-34.26,34.26H186.99c-18.94,0-34.26-15.32-34.26-34.26v-78.14
				c0-18.94,15.32-34.26,34.26-34.26h162.36C368.19,384.08,383.61,399.4,383.61,418.34z"/>
			<line class="st2" x1="459.27" y1="384.08" x2="457.94" y2="384.94"/>
			<line class="st2" x1="458.13" y1="530.74" x2="456.8" y2="529.69"/>
			<circle class="st2" cx="340.05" cy="322.68" r="61.42"/>
			<circle class="st2" cx="211.22" cy="333.82" r="50.28"/>
		</g>
		<polygon class="st2" points="457.94,384.94 456.8,529.69 383.61,470.69 383.61,432.14 		"/>
	</g>
</g>
<g id="copywriting" class="st0">
	<g class="st1">
		<path class="st2" d="M436.75,307.52V531.1c0,16.35-13.34,29.69-29.69,29.69H204.93c-16.47,0-29.69-13.34-29.69-29.69V260.78
			c0-16.35,13.22-29.57,29.69-29.57h155.51L436.75,307.52z"/>
		<path class="st2" d="M348.82,231.21v62.58c0,0-2.2,27.47,25.82,27.47s62.12,0,62.12,0"/>
		<line class="st2" x1="236.21" y1="406.95" x2="373.54" y2="406.95"/>
		<line class="st2" x1="236.21" y1="477.26" x2="373.54" y2="477.26"/>
	</g>
</g>
<g id="smm" class="st0">
	<g class="st1">
		<circle class="st2" cx="399.51" cy="285.79" r="56.64"/>
		<circle class="st2" cx="212.49" cy="392.93" r="56.64"/>
		<circle class="st2" cx="399.51" cy="506.21" r="56.64"/>
		<line class="st2" x1="259.59" y1="361.47" x2="347.7" y2="308.63"/>
		<line class="st2" x1="255.56" y1="429.67" x2="347.09" y2="484.79"/>
	</g>
</g>
<g id="outdoor_Advertising" class="st0">
	<g class="st1">
		<path class="st2" d="M414.98,549.26H193.41c-16.52,0-29.9-13.39-29.9-29.9V395.15c-19.54,0-21.89-49.78-5.37-49.78h298.3
			c16.52,0,6.63,52.33-11.55,52.33v121.66C444.88,535.87,431.49,549.26,414.98,549.26z"/>
		<line class="st2" x1="152.12" y1="345.37" x2="208.2" y2="243.76"/>
		<line class="st2" x1="461.02" y1="345.37" x2="397.31" y2="242.74"/>
		<line class="st2" x1="203.61" y1="243.76" x2="400.37" y2="243.76"/>
		<path class="st2" d="M163.51,395.15c0,0,36.02,12.74,60.49-13.25c0,0,36.19,49.95,77.99,0c0,0,40.27,49.44,73.4,0
			c0,0,17.16,32.62,69.49,15.8"/>
		<line class="st2" x1="163.51" y1="482.82" x2="444.88" y2="482.82"/>
	</g>
</g>
<g id="graphic_design" class="st0">
	<g class="st1">
		<circle class="st2" cx="184.92" cy="272.37" r="32.31"/>
		<circle class="st2" cx="423.71" cy="275.47" r="32.31"/>
		<circle class="st2" cx="188.29" cy="516.53" r="32.31"/>
		<circle class="st2" cx="427.08" cy="519.63" r="32.31"/>
		<line class="st2" x1="217.23" y1="272.37" x2="392.21" y2="272.37"/>
		<line class="st2" x1="423.71" y1="307.78" x2="423.71" y2="487.32"/>
		<line class="st2" x1="394.77" y1="519.63" x2="220.6" y2="519.63"/>
		<line class="st2" x1="188.29" y1="484.22" x2="188.29" y2="304.68"/>
	</g>
</g>
<g id="marketing">
	<g>
		<path class="st2" d="M149.43,434.12h217.8v-127h-217.8c-3.3,0-5.97,2.67-5.97,5.97v115.07
			C143.46,431.45,146.13,434.12,149.43,434.12z"/>
		<path class="st2" d="M266.9,549.03h-53.34c-0.86,0-1.55-0.69-1.55-1.55V434.12h56.45v113.36
			C268.45,548.34,267.75,549.03,266.9,549.03z"/>
		<line class="st2" x1="317.58" y1="307.12" x2="317.58" y2="434.12"/>
		<path class="st2" d="M365.71,307.12l85.68-60.98c0,0,17.14-10.33,17.14,6.3s0,236.37,0,236.37s1.26,25.2-19.91,8.32
			c-21.17-16.88-82.9-63-82.9-63V307.12z"/>
	</g>
</g>
</svg>
