<?xml version="1.0" encoding="utf-8"?>
<!-- Generator: Adobe Illustrator 25.2.3, SVG Export Plug-In . SVG Version: 6.00 Build 0)  -->
<svg version="1.1" xmlns="http://www.w3.org/2000/svg" xmlns:xlink="http://www.w3.org/1999/xlink" x="0px" y="0px"
	 viewBox="0 0 612 792" style="enable-background:new 0 0 612 792;" xml:space="preserve">
<style type="text/css">
	.st0{display:none;}
	.st1{display:inline;}
	.st2{fill:none;stroke:#B52B26;stroke-width:5;stroke-miterlimit:10;}
	.st3{fill:none;stroke:#B52B26;stroke-miterlimit:10;}
</style>
<g id="Layer_1">
</g>
<g id="branding" class="st0">
	<g class="st1">
		<path class="st2" d="M247.87,511.81h-31.98c-0.39,0-0.71-0.32-0.71-0.71V280.89c0-0.39,0.32-0.71,0.71-0.71h31.98
			c0.39,0,0.71,0.32,0.71,0.71v230.22C248.57,511.5,248.26,511.81,247.87,511.81z"/>
		<path class="st2" d="M327.25,426.26h-77.97c-0.39,0-0.71-0.32-0.71-0.71V299.67c0-0.39,0.32-0.71,0.71-0.71h77.97
			c0.39,0,0.71,0.32,0.71,0.71v125.88C327.95,425.94,327.64,426.26,327.25,426.26z"/>
		<path class="st2" d="M396.11,453.38h-67.45c-0.39,0-0.71-0.32-0.71-0.71V326.8c0-0.39,0.32-0.71,0.71-0.71h67.45
			c0.39,0,0.71,0.32,0.71,0.71v125.88C396.82,453.07,396.5,453.38,396.11,453.38z"/>
	</g>
</g>
<g id="strategy">
	<g>
		<circle class="st2" cx="196.92" cy="426.56" r="44.06"/>
		<circle class="st2" cx="308.03" cy="315.45" r="44.06"/>
		<circle class="st2" cx="415.08" cy="470.61" r="44.06"/>
		<line class="st2" x1="196.92" y1="382.5" x2="196.92" y2="247.41"/>
		<line class="st2" x1="196.92" y1="470.61" x2="196.92" y2="544.59"/>
		<line class="st2" x1="308.03" y1="359.5" x2="308.03" y2="544.59"/>
		<line class="st2" x1="308.03" y1="271.39" x2="308.03" y2="247.41"/>
		<line class="st2" x1="415.08" y1="426.56" x2="415.08" y2="247.41"/>
		<line class="st2" x1="415.08" y1="514.67" x2="415.08" y2="544.59"/>
	</g>
</g>
<g id="viedo_x5F_product" class="st0">
	<g class="st1">
		<g>
			<path class="st3" d="M252.64,372.24v8.21c0,1.99-1.62,3.6-3.6,3.6h-17.06c-1.99,0-3.6-1.61-3.6-3.6v-8.21
				c0-1.99,1.61-3.6,3.6-3.6h17.06C251.02,368.64,252.64,370.25,252.64,372.24z"/>
			<line class="st3" x1="260.59" y1="368.64" x2="260.45" y2="368.73"/>
			<line class="st3" x1="260.47" y1="384.05" x2="260.33" y2="383.94"/>
			<circle class="st3" cx="248.06" cy="362.19" r="6.45"/>
			<circle class="st3" cx="234.53" cy="363.36" r="5.28"/>
		</g>
		<polygon class="st3" points="260.45,368.73 260.33,383.94 252.64,377.74 252.64,373.69 		"/>
	</g>
</g>
<g id="copywriting" class="st0">
	<g class="st1">
		<path class="st3" d="M302,363.6v19.28c0,1.41-1.15,2.56-2.56,2.56h-17.43c-1.42,0-2.56-1.15-2.56-2.56v-23.31
			c0-1.41,1.14-2.55,2.56-2.55h13.41L302,363.6z"/>
		<path class="st3" d="M294.42,357.02v5.4c0,0-0.19,2.37,2.23,2.37c2.42,0,5.36,0,5.36,0"/>
		<line class="st3" x1="284.7" y1="372.17" x2="296.55" y2="372.17"/>
		<line class="st3" x1="284.7" y1="378.23" x2="296.55" y2="378.23"/>
	</g>
</g>
<g id="smm" class="st0">
	<g class="st1">
		<circle class="st3" cx="159.99" cy="404.87" r="4.99"/>
		<circle class="st3" cx="143.51" cy="414.3" r="4.99"/>
		<circle class="st3" cx="159.99" cy="424.28" r="4.99"/>
		<line class="st3" x1="147.66" y1="411.53" x2="155.42" y2="406.88"/>
		<line class="st3" x1="147.31" y1="417.54" x2="155.37" y2="422.39"/>
	</g>
</g>
<g id="outdoor_Advertising" class="st0">
	<g class="st1">
		<path class="st3" d="M210.64,429.78h-20.59c-1.53,0-2.78-1.24-2.78-2.78v-11.54c-1.82,0-2.03-4.63-0.5-4.63h27.72
			c1.53,0,0.62,4.86-1.07,4.86v11.31C213.41,428.54,212.17,429.78,210.64,429.78z"/>
		<line class="st3" x1="186.21" y1="410.84" x2="191.42" y2="401.39"/>
		<line class="st3" x1="214.91" y1="410.84" x2="208.99" y2="401.3"/>
		<line class="st3" x1="190.99" y1="401.39" x2="209.28" y2="401.39"/>
		<path class="st3" d="M187.27,415.46c0,0,3.35,1.18,5.62-1.23c0,0,3.36,4.64,7.25,0c0,0,3.74,4.59,6.82,0c0,0,1.59,3.03,6.46,1.47"
			/>
		<line class="st3" x1="187.27" y1="423.61" x2="213.41" y2="423.61"/>
	</g>
</g>
<g id="graphic_design" class="st0">
	<g class="st1">
		<circle class="st3" cx="230.13" cy="403.54" r="3.06"/>
		<circle class="st3" cx="252.77" cy="403.84" r="3.06"/>
		<circle class="st3" cx="230.45" cy="426.69" r="3.06"/>
		<circle class="st3" cx="253.09" cy="426.98" r="3.06"/>
		<line class="st3" x1="233.19" y1="403.54" x2="249.78" y2="403.54"/>
		<line class="st3" x1="252.77" y1="406.9" x2="252.77" y2="423.92"/>
		<line class="st3" x1="250.03" y1="426.98" x2="233.51" y2="426.98"/>
		<line class="st3" x1="230.45" y1="423.63" x2="230.45" y2="406.61"/>
	</g>
</g>
<g id="marketing" class="st0">
	<g class="st1">
		<path class="st3" d="M281.41,414.42h15.06v-11.94h-15.06c-3.3,0-5.97,2.67-5.97,5.97v0C275.45,411.75,278.12,414.42,281.41,414.42
			z"/>
		<path class="st3" d="M285.64,425.22h-2.2c-0.86,0-1.55-0.69-1.55-1.55v-9.25h5.31v9.25C287.19,424.53,286.5,425.22,285.64,425.22z
			"/>
		<line class="st3" x1="291.81" y1="402.48" x2="291.81" y2="414.42"/>
		<path class="st3" d="M296.34,402.48l8.05-5.73c0,0,1.61-0.97,1.61,0.59s0,22.22,0,22.22s0.12,2.37-1.87,0.78
			c-1.99-1.59-7.79-5.92-7.79-5.92V402.48z"/>
	</g>
</g>
</svg>
